<svg width="20" height="20" viewBox="0 0 20 20" fill="none" xmlns="http://www.w3.org/2000/svg">
<g clip-path="url(#clip0_293_144)">
<path d="M8.15 7.9445C9.99095 7.9445 11.4833 6.45211 11.4833 4.61117C11.4833 2.77022 9.99095 1.27783 8.15 1.27783C6.30905 1.27783 4.81667 2.77022 4.81667 4.61117C4.81667 6.45211 6.30905 7.9445 8.15 7.9445Z" fill="black"/>
<path d="M9.13334 17.6777C8.94974 17.4961 8.82994 17.2599 8.79188 17.0045C8.75382 16.7491 8.79955 16.4883 8.92223 16.261L9.21667 15.7055L8.61111 15.5222C8.36418 15.4449 8.1492 15.2891 7.9988 15.0786C7.8484 14.868 7.77081 14.6141 7.77778 14.3555V13.2166C7.77731 12.9591 7.8597 12.7082 8.01277 12.5012C8.16583 12.2941 8.38146 12.1417 8.62778 12.0666L9.23334 11.8833L8.94445 11.3277C8.82537 11.1036 8.78006 10.8476 8.81497 10.5962C8.84989 10.3448 8.96325 10.1109 9.13889 9.92771C8.71148 9.87179 8.28105 9.84211 7.85 9.83882C6.57685 9.80885 5.31277 10.0602 4.14791 10.5749C3.78404 10.7357 3.43266 10.921 3.09601 11.129C1.6613 12.0156 1.11111 13.7453 1.11111 15.4319V17.1222C1.11111 17.2695 1.16965 17.4108 1.27383 17.515C1.37802 17.6192 1.51933 17.6777 1.66667 17.6777H9.13334Z" fill="black"/>
<path d="M18.7222 13.0335L17.6111 12.7001C17.5343 12.4257 17.4261 12.161 17.2889 11.9112L17.8444 10.8779C17.8659 10.8396 17.8738 10.7951 17.8667 10.7517C17.8596 10.7083 17.8381 10.6686 17.8056 10.639L17 9.8279C16.969 9.79771 16.9294 9.77778 16.8867 9.77082C16.8439 9.76387 16.8001 9.77022 16.7611 9.78901L15.7333 10.3446C15.4804 10.207 15.2142 10.0953 14.9389 10.0112L14.6 8.90013C14.5851 8.85916 14.5579 8.82381 14.522 8.79894C14.4862 8.77407 14.4436 8.7609 14.4 8.76124H13.2444C13.2011 8.76245 13.1592 8.77696 13.1244 8.8028C13.0897 8.82864 13.0637 8.86456 13.05 8.90568L12.7167 10.0168C12.4363 10.0991 12.166 10.2128 11.9111 10.3557L10.9056 9.80013C10.8665 9.77935 10.8218 9.77139 10.778 9.77737C10.7341 9.78335 10.6932 9.80297 10.6611 9.83346L9.84444 10.6335C9.81229 10.6644 9.7911 10.7051 9.78408 10.7492C9.77707 10.7933 9.7846 10.8385 9.80555 10.8779L10.3611 11.889C10.2121 12.1399 10.091 12.4063 10 12.6835L8.88889 13.0223C8.84686 13.0345 8.80997 13.0601 8.78388 13.0952C8.75779 13.1303 8.74394 13.173 8.74444 13.2168V14.3557C8.74394 14.3994 8.75779 14.4421 8.78388 14.4773C8.80997 14.5124 8.84686 14.538 8.88889 14.5501L10 14.889C10.0833 15.1611 10.195 15.4237 10.3333 15.6723L9.77778 16.7279C9.75683 16.7673 9.74929 16.8125 9.75631 16.8566C9.76332 16.9007 9.78451 16.9414 9.81667 16.9723L10.6444 17.7779C10.6765 17.8084 10.7174 17.828 10.7613 17.834C10.8052 17.84 10.8498 17.832 10.8889 17.8112L11.9278 17.2557C12.1748 17.389 12.4356 17.4952 12.7056 17.5723L13.0389 18.7112C13.0529 18.7532 13.0797 18.7898 13.1156 18.8157C13.1515 18.8416 13.1946 18.8556 13.2389 18.8557H14.3778C14.4211 18.8545 14.463 18.84 14.4978 18.8141C14.5326 18.7883 14.5586 18.7524 14.5722 18.7112L14.9056 17.5723C15.1721 17.4957 15.4293 17.3895 15.6722 17.2557L16.7222 17.8112C16.7613 17.832 16.806 17.84 16.8498 17.834C16.8937 17.828 16.9346 17.8084 16.9667 17.7779L17.7778 16.9723C17.8083 16.9402 17.8279 16.8994 17.8339 16.8555C17.8398 16.8116 17.8319 16.767 17.8111 16.7279L17.2556 15.6835C17.3881 15.4399 17.4943 15.1829 17.5722 14.9168L18.6833 14.5779C18.7251 14.5645 18.7618 14.5387 18.7885 14.504C18.8153 14.4693 18.8309 14.4272 18.8333 14.3835V13.2335C18.8347 13.1932 18.8251 13.1533 18.8055 13.1181C18.7859 13.0828 18.7571 13.0536 18.7222 13.0335ZM13.8167 15.6557C13.4494 15.6568 13.0901 15.5489 12.7843 15.3457C12.4784 15.1424 12.2397 14.853 12.0984 14.5141C11.9571 14.1751 11.9196 13.8018 11.9905 13.4415C12.0615 13.0812 12.2378 12.7501 12.4971 12.49C12.7564 12.23 13.087 12.0527 13.4471 11.9806C13.8072 11.9086 14.1805 11.945 14.5199 12.0853C14.8593 12.2256 15.1494 12.4634 15.3536 12.7687C15.5577 13.0739 15.6667 13.4329 15.6667 13.8001C15.6667 14.2913 15.4719 14.7624 15.1252 15.1102C14.7784 15.4581 14.3078 15.6542 13.8167 15.6557Z" fill="black"/>
</g>
<defs>
<clipPath id="clip0_293_144">
<rect width="20" height="20" fill="white"/>
</clipPath>
</defs>
</svg>
