<svg width="36" height="36" viewBox="0 0 36 36" fill="none" xmlns="http://www.w3.org/2000/svg">
<rect width="36" height="36" rx="18" fill="#1E88E5" fill-opacity="0.1"/>
<path d="M25 23V25H13V23C13 23 13 19 19 19C25 19 25 23 25 23ZM22 14C22 13.4067 21.8241 12.8266 21.4944 12.3333C21.1648 11.8399 20.6962 11.4554 20.1481 11.2284C19.5999 11.0013 18.9967 10.9419 18.4147 11.0576C17.8328 11.1734 17.2982 11.4591 16.8787 11.8787C16.4591 12.2982 16.1734 12.8328 16.0576 13.4147C15.9419 13.9967 16.0013 14.5999 16.2284 15.1481C16.4554 15.6962 16.8399 16.1648 17.3333 16.4944C17.8266 16.8241 18.4067 17 19 17C19.7956 17 20.5587 16.6839 21.1213 16.1213C21.6839 15.5587 22 14.7957 22 14ZM25.2 19.06C25.7466 19.5643 26.1873 20.1724 26.4964 20.8489C26.8054 21.5254 26.9766 22.2566 27 23V25H30V23C30 23 30 19.55 25.2 19.06ZM24 11C23.6979 11 23.3976 11.0473 23.11 11.14C23.6951 11.979 24.0087 12.9772 24.0087 14C24.0087 15.0228 23.6951 16.021 23.11 16.86C23.3976 16.9527 23.6979 17 24 17C24.7956 17 25.5587 16.6839 26.1213 16.1213C26.6839 15.5587 27 14.7957 27 14C27 13.2044 26.6839 12.4413 26.1213 11.8787C25.5587 11.3161 24.7956 11 24 11ZM13.34 14.92L14.5 16.33L9.75 21.08L7 18.08L8.16 16.92L9.75 18.5L13.34 14.92Z" fill="#006DC7"/>
</svg>
