<svg width="36" height="36" viewBox="0 0 36 36" fill="none" xmlns="http://www.w3.org/2000/svg">
<rect width="36" height="36" rx="18" fill="#EAF7ED"/>
<path d="M19.585 17.565C19.9868 17.565 20.3721 17.7246 20.6563 18.0087C20.9404 18.2929 21.1 18.6782 21.1 19.08V19.585C21.1 21.5757 19.2214 23.625 16.05 23.625C12.8786 23.625 11 21.5757 11 19.585V19.08C11 18.6782 11.1596 18.2929 11.4437 18.0087C11.7279 17.7246 12.1132 17.565 12.515 17.565H19.585ZM16.05 11C16.7866 11 17.4931 11.2926 18.014 11.8135C18.5349 12.3344 18.8275 13.0409 18.8275 13.7775C18.8275 14.5141 18.5349 15.2206 18.014 15.7415C17.4931 16.2624 16.7866 16.555 16.05 16.555C15.3134 16.555 14.6069 16.2624 14.086 15.7415C13.5651 15.2206 13.2725 14.5141 13.2725 13.7775C13.2725 13.0409 13.5651 12.3344 14.086 11.8135C14.6069 11.2926 15.3134 11 16.05 11Z" fill="#28A745"/>
<rect x="17.0601" y="15.5449" width="7.07" height="7.07" rx="3.535" fill="#EAF7ED"/>
<path d="M21.9941 19.1675C22.5581 19.1676 22.9286 19.6292 22.9287 20.1753C22.9287 20.7505 22.5407 21.1948 21.9883 21.1948C21.4415 21.1947 21.0547 20.7506 21.0547 20.1812C21.0547 19.6289 21.4358 19.1675 21.9941 19.1675ZM22.5098 17.1958L22.4668 17.2603L19.876 21.1196L19.8633 21.1382H19.3311L19.374 21.0737L21.96 17.2144L21.9717 17.1958H22.5098ZM21.9883 19.6099C21.7355 19.61 21.5479 19.8455 21.5479 20.1753C21.5479 20.5158 21.7407 20.7466 21.9941 20.7466C22.1231 20.7465 22.2321 20.6894 22.3096 20.5913C22.3875 20.4926 22.4346 20.3506 22.4346 20.1812C22.4346 19.8409 22.2366 19.6099 21.9883 19.6099ZM19.8359 17.1626C20.3999 17.1627 20.7704 17.6179 20.7705 18.1753C20.7705 18.7451 20.3823 19.189 19.8301 19.189C19.2665 19.1888 18.8966 18.7334 18.8965 18.187C18.8965 17.6123 19.2776 17.1626 19.8359 17.1626ZM19.8301 17.6099C19.7012 17.6099 19.5921 17.6675 19.5146 17.7661C19.4368 17.8655 19.3896 18.0089 19.3896 18.1812C19.3897 18.5155 19.5874 18.7466 19.8359 18.7466C20.0841 18.7465 20.2764 18.5214 20.2764 18.1812C20.2764 17.8409 20.0784 17.6099 19.8301 17.6099Z" fill="#28A745" stroke="#28A745" stroke-width="0.0828718"/>
</svg>
