<svg width="28" height="28" viewBox="0 0 28 28" fill="none" xmlns="http://www.w3.org/2000/svg">
<rect width="28" height="28" rx="14" fill="#145DFD" fill-opacity="0.1"/>
<path d="M18.1763 9.29957V12.8503M18.1763 12.8503L19.6981 11.3286M18.1763 12.8503L16.6546 11.3286M7.52417 19.4445V18.9373C7.52417 17.861 7.9517 16.8288 8.71272 16.0678C9.47374 15.3068 10.5059 14.8793 11.5821 14.8793H12.5966C13.6729 14.8793 14.705 15.3068 15.4661 16.0678C16.2271 16.8288 16.6546 17.861 16.6546 18.9373V19.4445M14.6256 10.3141C14.6256 10.9867 14.3584 11.6318 13.8828 12.1075C13.4071 12.5831 12.762 12.8503 12.0894 12.8503C11.4167 12.8503 10.7716 12.5831 10.296 12.1075C9.82036 11.6318 9.55316 10.9867 9.55316 10.3141C9.55316 9.64141 9.82036 8.99631 10.296 8.52068C10.7716 8.04504 11.4167 7.77783 12.0894 7.77783C12.762 7.77783 13.4071 8.04504 13.8828 8.52068C14.3584 8.99631 14.6256 9.64141 14.6256 10.3141Z" stroke="#145DFD" stroke-width="0.995556" stroke-linejoin="round"/>
</svg>
