<svg width="20" height="20" viewBox="0 0 20 20" fill="none" xmlns="http://www.w3.org/2000/svg">
<path d="M5.90707 3.96853L5.07372 4.61899C3.80984 5.60551 3.1779 6.09878 2.83895 6.79428C2.5 7.48977 2.5 8.29321 2.5 9.90009V11.6428C2.5 14.7967 2.5 16.3736 3.47631 17.3534C4.45262 18.3332 6.02397 18.3332 9.16667 18.3332H10.8333C13.976 18.3332 15.5474 18.3332 16.5237 17.3534C17.5 16.3736 17.5 14.7967 17.5 11.6428V9.90009C17.5 8.29321 17.5 7.48977 17.1611 6.79428C16.8221 6.09878 16.1902 5.60551 14.9263 4.61899L14.0929 3.96853C12.1268 2.43385 11.1437 1.6665 10 1.6665C8.85633 1.6665 7.87322 2.43385 5.90707 3.96853Z" fill="black" stroke="black" stroke-width="1.25" stroke-linejoin="round"/>
<path d="M6.86365 18.9484L6.86565 15.2614C6.86611 14.4041 6.86634 13.9755 7.0253 13.6374C7.23765 13.1857 7.64508 12.8268 8.15781 12.6399C8.5417 12.5 9.02815 12.5 10.001 12.5C10.9743 12.5 11.4609 12.5 11.8449 12.64C12.3578 12.827 12.7652 13.186 12.9774 13.638C13.1364 13.9763 13.1364 14.4051 13.1364 15.2627V18.9484" stroke="white" stroke-width="1.25"/>
</svg>
