<svg width="837" height="837" viewBox="0 0 837 837" fill="none" xmlns="http://www.w3.org/2000/svg">
<path d="M836.02 418.01C836.02 530.201 791.819 632.07 719.883 707.15C643.798 786.572 536.677 836.02 418.01 836.02C299.343 836.02 192.222 786.572 116.137 707.15C44.201 632.069 0 530.201 0 418.01C0 187.152 187.152 0 418.01 0C648.868 0 836.02 187.152 836.02 418.01Z" fill="#E7E7E7"/>
<path d="M418.01 440.443C512.323 440.443 588.778 363.988 588.778 269.675C588.778 175.363 512.323 98.9072 418.01 98.9072C323.698 98.9072 247.242 175.363 247.242 269.675C247.242 363.988 323.698 440.443 418.01 440.443Z" fill="#B0B6B7"/>
<path d="M705.718 672.59C702.371 676.374 698.946 680.096 695.447 683.746C625.52 756.739 527.072 802.184 418.009 802.184C308.946 802.184 210.498 756.739 140.571 683.746C137.073 680.097 133.648 676.375 130.3 672.59C181.763 565.5 291.257 491.575 418.009 491.575C544.761 491.575 654.256 565.501 705.718 672.59Z" fill="#B0B6B7"/>
</svg>
