<svg width="18" height="18" viewBox="0 0 18 18" fill="none" xmlns="http://www.w3.org/2000/svg">
<path d="M2.25 8.9922V10.875C2.25 13.3499 2.25 14.5873 3.01885 15.3562C3.78769 16.125 5.02513 16.125 7.5 16.125H10.5C12.9748 16.125 14.2123 16.125 14.9812 15.3562C15.75 14.5873 15.75 13.3499 15.75 10.875V8.9922C15.75 7.73123 15.75 7.1008 15.4831 6.55504C15.2162 6.00928 14.7185 5.62221 13.7232 4.84808L12.2232 3.68141C10.6748 2.47714 9.90067 1.875 9 1.875C8.09933 1.875 7.32517 2.47714 5.77682 3.68141L4.27681 4.84808C3.2815 5.62221 2.78384 6.00928 2.51693 6.55504C2.25 7.1008 2.25 7.73123 2.25 8.9922Z" stroke="black" stroke-width="1.5" stroke-linecap="round" stroke-linejoin="round"/>
<path d="M12.75 13.125V10.125" stroke="black" stroke-width="1.5" stroke-linecap="round" stroke-linejoin="round"/>
</svg>
