<svg width="58" height="20" viewBox="0 0 58 20" fill="none" xmlns="http://www.w3.org/2000/svg">
<path fill-rule="evenodd" clip-rule="evenodd" d="M17.5846 19.9404H2.37192C1.06321 19.9404 0.00180246 18.8804 1.91189e-05 17.5717V2.3815C-0.00251144 1.75072 0.246257 1.14495 0.691347 0.698046C1.13644 0.251221 1.74119 -1.33514e-05 2.37192 -1.33514e-05H17.5846C18.2148 0.000858307 18.8187 0.252409 19.2631 0.699234C19.7075 1.14598 19.9558 1.75127 19.9533 2.3815V17.5717C19.9515 18.8792 18.892 19.9387 17.5846 19.9404ZM8.6053 5.57806C8.6045 5.36727 8.51973 5.16543 8.36973 5.01733C8.21974 4.86915 8.01694 4.78683 7.80615 4.7885H4.48168C4.04687 4.79024 3.69532 5.14326 3.69532 5.57806V15.4716C3.69532 15.9064 4.04687 16.2594 4.48168 16.2611H7.80615C8.2415 16.2594 8.59398 15.9069 8.59572 15.4716L8.6053 5.57806ZM16.2772 10.1205C16.2772 9.90937 16.1927 9.70705 16.0425 9.55872C15.8924 9.41038 15.6891 9.3283 15.478 9.33083H12.1535C11.7182 9.33265 11.3657 9.68513 11.364 10.1205V15.4716C11.3657 15.9069 11.7182 16.2594 12.1535 16.2611H15.478C15.9128 16.2594 16.2644 15.9064 16.2644 15.4716L16.2772 10.1205Z" fill="url(#paint0_linear_216_77)"/>
<path d="M22.8714 7.02293V0.340447H23.8539V7.02293H22.8714Z" fill="black"/>
<path d="M27.851 1.87732C28.9599 1.87732 29.7381 2.68467 29.7381 3.82273V7.02293H28.7945V3.98809C28.7945 3.23911 28.3179 2.71385 27.637 2.71385C26.9367 2.71385 26.3336 3.17102 26.2558 3.76437V7.02293H25.2928V1.99404H26.2558V2.72357C26.5573 2.22749 27.1701 1.87732 27.851 1.87732Z" fill="black"/>
<path d="M32.4386 1.4396V1.99404H33.6253V2.81112H32.4386V7.02293H31.4951V2.81112H30.7364V1.99404H31.4951V1.39097C31.4951 0.583623 32.0398 0.0194544 32.818 0.0194544C33.1779 0.0194544 33.5475 0.155633 33.8198 0.379355L33.4697 1.02134C33.3627 0.914343 33.1681 0.836526 32.9541 0.836526C32.6721 0.836526 32.4386 1.08943 32.4386 1.4396Z" fill="black"/>
<path d="M38.0837 1.99404H39.0467V7.02293H38.0837V6.2934C37.7822 6.78948 37.1694 7.13965 36.4885 7.13965C35.3796 7.13965 34.6014 6.33231 34.6014 5.19424V1.99404H35.5449V5.02888C35.5449 5.77787 36.0216 6.30313 36.7025 6.30313C37.4028 6.30313 38.0059 5.84596 38.0837 5.25261V1.99404Z" fill="black"/>
<path d="M42.2628 7.13965C41.5235 7.13965 40.7162 6.87702 40.1131 6.39067L40.5703 5.70005C41.1052 6.08913 41.6791 6.31285 42.2725 6.31285C42.8367 6.31285 43.2257 6.05022 43.2257 5.66114C43.2257 5.19424 42.7102 5.04834 42.0877 4.87325C40.9302 4.55226 40.3563 4.22154 40.3563 3.40447C40.3465 2.4804 41.115 1.87732 42.1849 1.87732C42.8367 1.87732 43.4981 2.10104 44.0428 2.46094L43.6148 3.17102C43.1285 2.86948 42.6227 2.70412 42.1849 2.70412C41.6889 2.70412 41.2998 2.91811 41.2998 3.29747C41.2998 3.68655 41.6111 3.80328 42.4573 4.06591C43.2841 4.30908 44.1693 4.58144 44.1693 5.58332C44.1693 6.53658 43.3619 7.13965 42.2628 7.13965Z" fill="black"/>
<path d="M45.765 1.15752C45.4342 1.15752 45.1813 0.885161 45.1813 0.573896C45.1813 0.272358 45.4342 0 45.765 0C46.0762 0 46.3389 0.272358 46.3389 0.573896C46.3389 0.885161 46.0762 1.15752 45.765 1.15752ZM45.2786 7.02293V1.99404H46.2416V7.02293H45.2786Z" fill="black"/>
<path d="M49.3077 7.02293L47.1483 1.99404H48.189L49.7551 5.90432L51.292 1.99404H52.3328L50.2123 7.02293H49.3077Z" fill="black"/>
<path d="M55.2214 6.28367C55.7467 6.28367 56.3595 6.05022 56.661 5.73896L57.2641 6.36149C56.8166 6.83811 55.9412 7.13965 55.2311 7.13965C53.8304 7.13965 52.6437 6.0405 52.6437 4.4939C52.6437 2.9862 53.7623 1.87732 55.1533 1.87732C56.6902 1.87732 57.5753 3.04457 57.5753 4.84407H53.6164C53.7429 5.6806 54.3557 6.28367 55.2214 6.28367ZM55.1922 2.7333C54.414 2.7333 53.7818 3.25856 53.6262 4.07563H56.6415C56.5345 3.29747 56.0579 2.7333 55.1922 2.7333Z" fill="black"/>
<path d="M22.9468 19.1817V10.8286H25.026L27.4334 15.1815L29.8409 10.8286H31.92V19.1817H29.8409V14.3425L27.4334 18.6954L25.026 14.3425V19.1817H22.9468Z" fill="url(#paint1_linear_216_77)"/>
<path d="M36.4318 17.6619C36.9182 17.6619 37.4775 17.4552 37.8544 17.1269L39.0703 18.3549C38.511 18.9264 37.4288 19.3276 36.4926 19.3276C34.5472 19.3276 33.1124 17.9537 33.1124 16.0204C33.1124 14.1115 34.4986 12.7497 36.3953 12.7497C38.3894 12.7497 39.5566 14.2088 39.5566 16.6041H35.07C35.2646 17.2363 35.7631 17.6619 36.4318 17.6619ZM36.4318 14.4033C35.8117 14.4033 35.3132 14.7681 35.0943 15.3517H37.6477C37.4775 14.7802 37.0519 14.4033 36.4318 14.4033Z" fill="url(#paint2_linear_216_77)"/>
<path d="M45.2809 10.6827H47.3479V19.1817H45.2809V18.3793C44.7824 18.975 44.0651 19.3276 43.2261 19.3276C41.536 19.3276 40.3445 17.9659 40.3445 16.0326C40.3445 14.1115 41.536 12.7497 43.2261 12.7497C44.0651 12.7497 44.7824 13.1023 45.2809 13.6981V10.6827ZM43.8462 17.6132C44.6973 17.6132 45.2809 16.9567 45.2809 16.0326C45.2809 15.1207 44.6973 14.4641 43.8462 14.4641C42.9586 14.4641 42.3264 15.1207 42.3264 16.0326C42.3264 16.9567 42.9586 17.6132 43.8462 17.6132Z" fill="url(#paint3_linear_216_77)"/>
<path d="M49.8039 12.1296C49.196 12.1296 48.7096 11.6311 48.7096 11.0353C48.7096 10.4639 49.196 9.96536 49.8039 9.96536C50.3997 9.96536 50.8739 10.4639 50.8739 11.0353C50.8739 11.6311 50.3997 12.1296 49.8039 12.1296ZM48.7583 19.1817V12.8956H50.8131V19.1817H48.7583Z" fill="url(#paint4_linear_216_77)"/>
<path d="M55.167 12.7497C56.7841 12.7497 58 13.7711 58 15.449V19.1817H56.0181V18.6467C55.5804 19.0845 54.9238 19.3276 54.2794 19.3276C52.9419 19.3276 51.8841 18.513 51.8841 17.3214C51.8841 16.0934 53.0635 15.2301 54.5469 15.2301C55.0089 15.2301 55.5318 15.3396 56.0181 15.5341V15.449C56.0181 14.7802 55.5075 14.2939 54.6442 14.2939C54.0484 14.2939 53.5985 14.4763 53.0635 14.7559L52.4191 13.4671C53.2945 13.0294 54.1943 12.7497 55.167 12.7497ZM54.7779 18.0631C55.3859 18.0631 55.933 17.7713 56.0181 17.2971V16.6284C55.702 16.5068 55.2643 16.4217 54.8387 16.4217C54.2794 16.4217 53.8417 16.7743 53.8417 17.2606C53.8417 17.747 54.2308 18.0631 54.7779 18.0631Z" fill="url(#paint5_linear_216_77)"/>
<defs>
<linearGradient id="paint0_linear_216_77" x1="9.98622" y1="-1.33514e-05" x2="9.98622" y2="19.9404" gradientUnits="userSpaceOnUse">
<stop stop-color="#0052CC"/>
<stop offset="1" stop-color="#2684FF"/>
</linearGradient>
<linearGradient id="paint1_linear_216_77" x1="40.4525" y1="19.3276" x2="40.4525" y2="0" gradientUnits="userSpaceOnUse">
<stop stop-color="#0052CC"/>
<stop offset="1" stop-color="#2684FF"/>
</linearGradient>
<linearGradient id="paint2_linear_216_77" x1="40.4525" y1="19.3276" x2="40.4525" y2="0" gradientUnits="userSpaceOnUse">
<stop stop-color="#0052CC"/>
<stop offset="1" stop-color="#2684FF"/>
</linearGradient>
<linearGradient id="paint3_linear_216_77" x1="40.4525" y1="19.3276" x2="40.4525" y2="0" gradientUnits="userSpaceOnUse">
<stop stop-color="#0052CC"/>
<stop offset="1" stop-color="#2684FF"/>
</linearGradient>
<linearGradient id="paint4_linear_216_77" x1="40.4525" y1="19.3276" x2="40.4525" y2="0" gradientUnits="userSpaceOnUse">
<stop stop-color="#0052CC"/>
<stop offset="1" stop-color="#2684FF"/>
</linearGradient>
<linearGradient id="paint5_linear_216_77" x1="40.4525" y1="19.3276" x2="40.4525" y2="0" gradientUnits="userSpaceOnUse">
<stop stop-color="#0052CC"/>
<stop offset="1" stop-color="#2684FF"/>
</linearGradient>
</defs>
</svg>
