<svg width="120" height="41" viewBox="0 0 120 41" fill="none" xmlns="http://www.w3.org/2000/svg">
<path fill-rule="evenodd" clip-rule="evenodd" d="M36.1561 41H4.87697C2.1861 41 0.00370608 38.8205 3.93108e-05 36.1297V4.89668C-0.00516383 3.59972 0.506334 2.35419 1.42149 1.4353C2.33666 0.516567 3.58011 0 4.87697 0H36.1561C37.4518 0.00178909 38.6936 0.519012 39.6073 1.43774C40.5209 2.3563 41.0317 3.60086 41.0264 4.89668V36.1297C41.0227 38.818 38.8443 40.9964 36.1561 41ZM17.6935 11.4692C17.6919 11.0358 17.5176 10.6208 17.2092 10.3163C16.9008 10.0116 16.4838 9.84234 16.0504 9.84576H9.21489C8.32087 9.84934 7.59803 10.5752 7.59803 11.4692V31.8115C7.59803 32.7055 8.32087 33.4313 9.21489 33.4349H16.0504C16.9455 33.4313 17.6703 32.7066 17.6739 31.8115L17.6935 11.4692ZM33.4678 20.809C33.4678 20.3749 33.2942 19.9589 32.9854 19.6539C32.6767 19.3489 32.2587 19.1802 31.8247 19.1854H24.9892C24.094 19.1891 23.3693 19.9138 23.3657 20.809V31.8115C23.3693 32.7066 24.094 33.4313 24.9892 33.4349H31.8247C32.7187 33.4313 33.4416 32.7055 33.4416 31.8115L33.4678 20.809Z" fill="url(#paint0_linear_2_674)"/>
<path d="M47.0265 14.44V0.700001H49.0465V14.44H47.0265Z" fill="black"/>
<path d="M57.2651 3.86C59.5451 3.86 61.1451 5.52 61.1451 7.86V14.44H59.2051V8.2C59.2051 6.66 58.2251 5.58 56.8251 5.58C55.3851 5.58 54.1451 6.52 53.9851 7.74V14.44H52.0051V4.1H53.9851V5.6C54.6051 4.58 55.8651 3.86 57.2651 3.86Z" fill="black"/>
<path d="M66.6977 2.96V4.1H69.1377V5.78H66.6977V14.44H64.7577V5.78H63.1977V4.1H64.7577V2.86C64.7577 1.2 65.8777 0.0400007 67.4777 0.0400007C68.2177 0.0400007 68.9777 0.320001 69.5377 0.780001L68.8177 2.1C68.5977 1.88 68.1977 1.72 67.7577 1.72C67.1777 1.72 66.6977 2.24 66.6977 2.96Z" fill="black"/>
<path d="M78.3048 4.1H80.2848V14.44H78.3048V12.94C77.6848 13.96 76.4248 14.68 75.0248 14.68C72.7448 14.68 71.1448 13.02 71.1448 10.68V4.1H73.0848V10.34C73.0848 11.88 74.0648 12.96 75.4648 12.96C76.9048 12.96 78.1448 12.02 78.3048 10.8V4.1Z" fill="black"/>
<path d="M86.8974 14.68C85.3774 14.68 83.7174 14.14 82.4774 13.14L83.4174 11.72C84.5174 12.52 85.6974 12.98 86.9174 12.98C88.0774 12.98 88.8774 12.44 88.8774 11.64C88.8774 10.68 87.8174 10.38 86.5374 10.02C84.1574 9.36 82.9774 8.68 82.9774 7C82.9574 5.1 84.5374 3.86 86.7374 3.86C88.0774 3.86 89.4374 4.32 90.5574 5.06L89.6774 6.52C88.6774 5.9 87.6374 5.56 86.7374 5.56C85.7174 5.56 84.9174 6 84.9174 6.78C84.9174 7.58 85.5574 7.82 87.2974 8.36C88.9974 8.86 90.8174 9.42 90.8174 11.48C90.8174 13.44 89.1574 14.68 86.8974 14.68Z" fill="black"/>
<path d="M94.0984 2.38C93.4184 2.38 92.8984 1.82 92.8984 1.18C92.8984 0.560001 93.4184 0 94.0984 0C94.7384 0 95.2784 0.560001 95.2784 1.18C95.2784 1.82 94.7384 2.38 94.0984 2.38ZM93.0984 14.44V4.1H95.0784V14.44H93.0984Z" fill="black"/>
<path d="M101.383 14.44L96.9426 4.1H99.0826L102.303 12.14L105.463 4.1H107.603L103.243 14.44H101.383Z" fill="black"/>
<path d="M113.542 12.92C114.622 12.92 115.882 12.44 116.502 11.8L117.742 13.08C116.822 14.06 115.022 14.68 113.562 14.68C110.682 14.68 108.242 12.42 108.242 9.24C108.242 6.14 110.542 3.86 113.402 3.86C116.562 3.86 118.382 6.26 118.382 9.96H110.242C110.502 11.68 111.762 12.92 113.542 12.92ZM113.482 5.62C111.882 5.62 110.582 6.7 110.262 8.38H116.462C116.242 6.78 115.262 5.62 113.482 5.62Z" fill="black"/>
<path d="M47.1815 39.44V22.265H51.4565L56.4065 31.215L61.3565 22.265H65.6315V39.44H61.3565V29.49L56.4065 38.44L51.4565 29.49V39.44H47.1815Z" fill="url(#paint1_linear_2_674)"/>
<path d="M74.9082 36.315C75.9082 36.315 77.0582 35.89 77.8332 35.215L80.3332 37.74C79.1832 38.915 76.9582 39.74 75.0332 39.74C71.0332 39.74 68.0832 36.915 68.0832 32.94C68.0832 29.015 70.9332 26.215 74.8332 26.215C78.9332 26.215 81.3332 29.215 81.3332 34.14H72.1082C72.5082 35.44 73.5332 36.315 74.9082 36.315ZM74.9082 29.615C73.6332 29.615 72.6082 30.365 72.1582 31.565H77.4082C77.0582 30.39 76.1832 29.615 74.9082 29.615Z" fill="url(#paint2_linear_2_674)"/>
<path d="M93.1032 21.965H97.3532V39.44H93.1032V37.79C92.0782 39.015 90.6032 39.74 88.8782 39.74C85.4032 39.74 82.9532 36.94 82.9532 32.965C82.9532 29.015 85.4032 26.215 88.8782 26.215C90.6032 26.215 92.0782 26.94 93.1032 28.165V21.965ZM90.1532 36.215C91.9032 36.215 93.1032 34.865 93.1032 32.965C93.1032 31.09 91.9032 29.74 90.1532 29.74C88.3282 29.74 87.0282 31.09 87.0282 32.965C87.0282 34.865 88.3282 36.215 90.1532 36.215Z" fill="url(#paint3_linear_2_674)"/>
<path d="M102.403 24.94C101.153 24.94 100.153 23.915 100.153 22.69C100.153 21.515 101.153 20.49 102.403 20.49C103.628 20.49 104.603 21.515 104.603 22.69C104.603 23.915 103.628 24.94 102.403 24.94ZM100.253 39.44V26.515H104.478V39.44H100.253Z" fill="url(#paint4_linear_2_674)"/>
<path d="M113.43 26.215C116.755 26.215 119.255 28.315 119.255 31.765V39.44H115.18V38.34C114.28 39.24 112.93 39.74 111.605 39.74C108.855 39.74 106.68 38.065 106.68 35.615C106.68 33.09 109.105 31.315 112.155 31.315C113.105 31.315 114.18 31.54 115.18 31.94V31.765C115.18 30.39 114.13 29.39 112.355 29.39C111.13 29.39 110.205 29.765 109.105 30.34L107.78 27.69C109.58 26.79 111.43 26.215 113.43 26.215ZM112.63 37.14C113.88 37.14 115.005 36.54 115.18 35.565V34.19C114.53 33.94 113.63 33.765 112.755 33.765C111.605 33.765 110.705 34.49 110.705 35.49C110.705 36.49 111.505 37.14 112.63 37.14Z" fill="url(#paint5_linear_2_674)"/>
<defs>
<linearGradient id="paint0_linear_2_674" x1="20.5329" y1="0" x2="20.5329" y2="41" gradientUnits="userSpaceOnUse">
<stop stop-color="#0052CC"/>
<stop offset="1" stop-color="#2684FF"/>
</linearGradient>
<linearGradient id="paint1_linear_2_674" x1="83.1754" y1="39.74" x2="83.1754" y2="0" gradientUnits="userSpaceOnUse">
<stop stop-color="#0052CC"/>
<stop offset="1" stop-color="#2684FF"/>
</linearGradient>
<linearGradient id="paint2_linear_2_674" x1="83.1754" y1="39.74" x2="83.1754" y2="0" gradientUnits="userSpaceOnUse">
<stop stop-color="#0052CC"/>
<stop offset="1" stop-color="#2684FF"/>
</linearGradient>
<linearGradient id="paint3_linear_2_674" x1="83.1754" y1="39.74" x2="83.1754" y2="0" gradientUnits="userSpaceOnUse">
<stop stop-color="#0052CC"/>
<stop offset="1" stop-color="#2684FF"/>
</linearGradient>
<linearGradient id="paint4_linear_2_674" x1="83.1754" y1="39.74" x2="83.1754" y2="0" gradientUnits="userSpaceOnUse">
<stop stop-color="#0052CC"/>
<stop offset="1" stop-color="#2684FF"/>
</linearGradient>
<linearGradient id="paint5_linear_2_674" x1="83.1754" y1="39.74" x2="83.1754" y2="0" gradientUnits="userSpaceOnUse">
<stop stop-color="#0052CC"/>
<stop offset="1" stop-color="#2684FF"/>
</linearGradient>
</defs>
</svg>
