<svg width="18" height="18" viewBox="0 0 18 18" fill="none" xmlns="http://www.w3.org/2000/svg">
<path d="M9 16.5L7.5 12H1.5L3 16.5H9ZM9 16.5H12" stroke="black" stroke-width="1.125" stroke-linecap="round" stroke-linejoin="round"/>
<path d="M9 9.75V9.375C9 7.9608 9 7.25368 8.56065 6.81434C8.1213 6.375 7.41421 6.375 6 6.375C4.58579 6.375 3.87868 6.375 3.43934 6.81434C3 7.25368 3 7.9608 3 9.375V9.75" stroke="black" stroke-width="1.125" stroke-linecap="round" stroke-linejoin="round"/>
<path d="M14.25 9.75C14.25 10.5784 13.5784 11.25 12.75 11.25C11.9216 11.25 11.25 10.5784 11.25 9.75C11.25 8.92155 11.9216 8.25 12.75 8.25C13.5784 8.25 14.25 8.92155 14.25 9.75Z" stroke="black" stroke-width="1.125"/>
<path d="M7.5 3C7.5 3.82843 6.82843 4.5 6 4.5C5.17157 4.5 4.5 3.82843 4.5 3C4.5 2.17157 5.17157 1.5 6 1.5C6.82843 1.5 7.5 2.17157 7.5 3Z" stroke="black" stroke-width="1.125"/>
<path d="M10.5 13.125H15C15.8284 13.125 16.5 13.7966 16.5 14.625V15C16.5 15.8284 15.8284 16.5 15 16.5H14.25" stroke="black" stroke-width="1.125" stroke-linecap="round"/>
</svg>
