<svg width="36" height="36" viewBox="0 0 36 36" fill="none" xmlns="http://www.w3.org/2000/svg">
<rect width="36" height="36" rx="18" fill="#007BFF" fill-opacity="0.1"/>
<path d="M20.4064 11.292V13.2295M14.5939 11.292V13.2295M17.5002 11.292V13.2295M18.146 12.2607H16.8543C14.7231 12.2607 13.6575 12.2607 12.9955 12.9227C12.3335 13.5847 12.3335 14.6503 12.3335 16.7816V19.6878C12.3335 21.8191 12.3335 22.8847 12.9955 23.5467C13.6575 24.2087 14.7231 24.2087 16.8543 24.2087H18.146C20.2772 24.2087 21.3429 24.2087 22.0049 23.5467C22.6668 22.8847 22.6668 21.8191 22.6668 19.6878V16.7816C22.6668 14.6503 22.6668 13.5847 22.0049 12.9227C21.3429 12.2607 20.2772 12.2607 18.146 12.2607Z" stroke="#007BFF" stroke-width="0.96875" stroke-linecap="round" stroke-linejoin="round"/>
<path d="M14.5938 17.1045L15.2396 17.7503L16.5312 16.1357M18.1458 20.9795H20.0833M18.1458 17.1045H20.0833" stroke="#007BFF" stroke-width="0.96875" stroke-linecap="round" stroke-linejoin="round"/>
<path d="M15.2332 20.8931H15.2407" stroke="#007BFF" stroke-width="1.29167" stroke-linecap="round" stroke-linejoin="round"/>
</svg>
