<svg width="36" height="36" viewBox="0 0 36 36" fill="none" xmlns="http://www.w3.org/2000/svg">
<rect width="36" height="36" rx="18" fill="#1E88E5" fill-opacity="0.1"/>
<path d="M15.8818 16.8061C16.5191 16.8061 17.1304 16.5529 17.581 16.1022C18.0317 15.6516 18.2848 15.0404 18.2848 14.403C18.2848 13.7657 18.0317 13.1545 17.581 12.7038C17.1304 12.2532 16.5191 12 15.8818 12C15.2445 12 14.6333 12.2532 14.1826 12.7038C13.732 13.1545 13.4788 13.7657 13.4788 14.403C13.4788 15.0404 13.732 15.6516 14.1826 16.1022C14.6333 16.5529 15.2445 16.8061 15.8818 16.8061ZM23.4606 14.9576C23.4606 15.4478 23.2659 15.918 22.9192 16.2647C22.5725 16.6113 22.1024 16.8061 21.6121 16.8061C21.1219 16.8061 20.6517 16.6113 20.305 16.2647C19.9584 15.918 19.7636 15.4478 19.7636 14.9576C19.7636 14.4673 19.9584 13.9972 20.305 13.6505C20.6517 13.3038 21.1219 13.1091 21.6121 13.1091C22.1024 13.1091 22.5725 13.3038 22.9192 13.6505C23.2659 13.9972 23.4606 14.4673 23.4606 14.9576ZM17.5455 20.8727C17.5455 19.6128 18.1185 18.486 19.0191 17.7399C18.7954 17.6123 18.5423 17.5452 18.2848 17.5455H13.4788C13.0866 17.5455 12.7105 17.7013 12.4331 17.9786C12.1558 18.2559 12 18.632 12 19.0242C12 19.0242 12 21.9818 15.8818 21.9818C16.5865 21.9818 17.1632 21.8842 17.6349 21.7252C17.5751 21.445 17.5452 21.1593 17.5455 20.8727ZM24.9394 20.8727C24.9394 21.7552 24.5888 22.6015 23.9649 23.2255C23.3409 23.8494 22.4946 24.2 21.6121 24.2C20.7297 24.2 19.8834 23.8494 19.2594 23.2255C18.6354 22.6015 18.2848 21.7552 18.2848 20.8727C18.2848 19.9903 18.6354 19.144 19.2594 18.52C19.8834 17.896 20.7297 17.5455 21.6121 17.5455C22.4946 17.5455 23.3409 17.896 23.9649 18.52C24.5888 19.144 24.9394 19.9903 24.9394 20.8727ZM21.9818 19.3939C21.9818 19.2959 21.9429 19.2019 21.8735 19.1325C21.8042 19.0632 21.7102 19.0242 21.6121 19.0242C21.5141 19.0242 21.42 19.0632 21.3507 19.1325C21.2814 19.2019 21.2424 19.2959 21.2424 19.3939V20.503H20.1333C20.0353 20.503 19.9412 20.542 19.8719 20.6113C19.8026 20.6806 19.7636 20.7747 19.7636 20.8727C19.7636 20.9708 19.8026 21.0648 19.8719 21.1341C19.9412 21.2035 20.0353 21.2424 20.1333 21.2424H21.2424V22.3515C21.2424 22.4496 21.2814 22.5436 21.3507 22.6129C21.42 22.6823 21.5141 22.7212 21.6121 22.7212C21.7102 22.7212 21.8042 22.6823 21.8735 22.6129C21.9429 22.5436 21.9818 22.4496 21.9818 22.3515V21.2424H23.0909C23.189 21.2424 23.283 21.2035 23.3523 21.1341C23.4217 21.0648 23.4606 20.9708 23.4606 20.8727C23.4606 20.7747 23.4217 20.6806 23.3523 20.6113C23.283 20.542 23.189 20.503 23.0909 20.503H21.9818V19.3939Z" fill="#1E88E5"/>
</svg>
