<svg width="9" height="12" viewBox="0 0 9 12" fill="none" xmlns="http://www.w3.org/2000/svg">
<path d="M7.95437 10.6808V10.2262C7.95437 8.51203 7.95437 7.65491 7.42182 7.12238C6.88928 6.58984 6.0322 6.58984 4.318 6.58984C2.6038 6.58984 1.7467 6.58984 1.21418 7.12238C0.681641 7.65491 0.681641 8.51203 0.681641 10.2262V10.6808" fill="black"/>
<path d="M7.27246 10.6807V10.2266C7.27246 9.35034 7.27093 8.76137 7.21192 8.32227C7.15551 7.90276 7.05793 7.72296 6.93946 7.6045C6.82102 7.48612 6.64168 7.38842 6.22266 7.33204C5.7836 7.273 5.19454 7.27149 4.31836 7.27149C3.44216 7.27149 2.85316 7.27303 2.41407 7.33204C1.99456 7.38844 1.81476 7.48603 1.69629 7.6045C1.57783 7.72296 1.48023 7.90276 1.42383 8.32227C1.36483 8.76137 1.36329 9.35037 1.36329 10.2266V10.6807C1.36329 11.0572 1.0582 11.3623 0.681644 11.3623C0.305087 11.3623 3.77745e-06 11.0572 3.77745e-06 10.6807V10.2266C3.77745e-06 9.38891 -0.00178148 8.69169 0.0722694 8.14063C0.149001 7.56991 0.318359 7.05469 0.732426 6.64063C1.14649 6.22656 1.66171 6.0572 2.23243 5.98047C2.78348 5.90642 3.48071 5.90821 4.31836 5.90821C5.15603 5.90821 5.85327 5.90639 6.4043 5.98047C6.97487 6.05723 7.49033 6.22666 7.9043 6.64063C8.31811 7.05463 8.48677 7.57007 8.56348 8.14063C8.63754 8.69169 8.63575 9.3889 8.63575 10.2266V10.6807C8.63575 11.0572 8.33066 11.3623 7.95411 11.3623C7.57767 11.3622 7.27246 11.0571 7.27246 10.6807Z" fill="black"/>
<path d="M6.13588 2.49982C6.13588 3.50398 5.32185 4.318 4.31769 4.318C3.31354 4.318 2.49951 3.50398 2.49951 2.49982C2.49951 1.49567 3.31354 0.681641 4.31769 0.681641C5.32185 0.681641 6.13588 1.49567 6.13588 2.49982Z" fill="black"/>
<path d="M5.45361 2.5C5.45361 1.87246 4.94539 1.36338 4.31787 1.36328C3.69027 1.36328 3.18115 1.8724 3.18115 2.5C3.18125 3.12752 3.69033 3.63574 4.31787 3.63574C4.94533 3.63565 5.45352 3.12746 5.45361 2.5ZM6.81787 2.5C6.81778 3.88057 5.69844 4.9999 4.31787 5C2.93722 5 1.81797 3.88063 1.81787 2.5C1.81787 1.11929 2.93716 0 4.31787 0C5.6985 9.59315e-05 6.81787 1.11935 6.81787 2.5Z" fill="black"/>
</svg>
